<svg width="773" height="218" viewBox="0 0 773 218" fill="none" xmlns="http://www.w3.org/2000/svg">
<path d="M118.895 89.4422L152.317 70.1468V108.738L118.895 128.033V89.4422ZM158.534 67.5401L191.957 48.2446V86.8355L158.534 106.131V67.5401Z" fill="black"/>
<path d="M158.543 111.868L191.965 92.5725V131.163L158.543 150.459V111.868Z" fill="black"/>
<path d="M198.175 43.5483L231.598 24.2529V62.8438L198.175 82.1392V43.5483ZM115.825 84.7459L82.3952 65.4505L115.818 46.155L149.24 65.4505L115.825 84.7459ZM76.1781 61.8026L42.7706 42.5071L76.1781 23.2117L109.608 42.5071L76.1781 61.8026ZM36.5535 38.8593L3.13102 19.5638L36.5535 0.253418L69.976 19.5489L36.5535 38.8593ZM155.457 61.8026L122.035 42.5071L155.457 23.2117L188.88 42.5071L155.457 61.8026ZM195.097 38.8593L161.674 19.5638L195.097 0.260904L228.519 19.5564L195.097 38.8593ZM112.694 89.4424L79.2716 70.147V108.738L112.694 128.033V89.4424ZM73.062 66.4916L39.6396 47.2037V85.7946L73.062 105.09V66.4916ZM73.062 111.345L39.6396 92.0491V130.64L73.062 149.935V111.345ZM33.4225 43.5483L0 24.2529V62.8438L33.4225 82.1392V43.5483ZM118.904 134.295L152.326 115V153.591L118.904 172.886V134.295ZM112.694 134.295L79.2716 114.992V153.583L112.694 172.879V134.295ZM118.904 179.141L152.326 159.853V198.436L118.904 217.739V179.141ZM112.694 179.141L79.2716 159.853V198.436L112.694 217.739V179.141ZM365.033 191.395H329.318V20.253H427.354V49.9752H365.033V94.079H423.039V123.801H365.033V191.395ZM493.712 60.5217V191.395H457.99V60.5217H493.712ZM475.967 9.227C481.248 9.227 485.802 10.5004 489.637 13.0621C493.465 15.4591 495.382 20.0133 495.382 26.7247C495.382 33.2789 493.465 37.8331 489.637 40.3873C485.802 42.9416 481.248 44.2225 475.974 44.2225C470.536 44.2225 465.907 42.9491 462.072 40.3873C458.394 37.8331 456.559 33.2714 456.559 26.7247C456.559 20.0133 458.394 15.4591 462.072 13.0621C465.9 10.5079 470.536 9.227 475.967 9.227ZM566.744 191.395H531.022V9.227H566.744V191.395Z" fill="black"/>
<path d="M642.652 191.394H606.93V20.2523H704.965V49.9745H642.644V94.0783H700.658V123.801H642.644L642.652 191.394ZM771.323 60.521V191.394H735.608V60.521H771.323ZM753.586 9.22632C758.859 9.22632 763.413 10.4997 767.248 13.0614C771.083 15.4584 773.001 20.0126 773.001 26.724C773.001 33.2782 771.083 37.8324 767.248 40.3867C763.413 42.9409 758.859 44.2218 753.586 44.2218C748.155 44.2218 743.518 42.9484 739.683 40.3867C736.013 37.8324 734.17 33.2707 734.17 26.724C734.17 20.0126 736.005 15.4584 739.683 13.0614C743.518 10.5072 748.147 9.22632 753.586 9.22632Z" fill="black"/>
</svg>
