<svg width="240" height="335" viewBox="0 0 240 335" fill="none" xmlns="http://www.w3.org/2000/svg">
<path fill-rule="evenodd" clip-rule="evenodd" d="M49.7381 0.60491C49.3148 1.03036 49.1865 15.5579 49.1865 63.1816C49.1865 124.028 49.2035 125.213 50.0755 125.682C50.68 126.007 80.9651 126.16 144.7 126.16C234.925 126.16 238.463 126.129 239.196 125.315C239.89 124.544 239.957 121.25 239.957 87.4468V50.4233L238.881 49.7151C237.925 49.0859 230.128 49.0208 168.572 49.1271C112.501 49.2245 99.2248 49.3613 98.7407 49.8477C98.2797 50.3105 98.1432 53.3058 98.1432 62.9349C98.1432 74.7619 98.1905 75.4558 99.0354 76.0771C99.7939 76.6342 107.758 76.7326 152.029 76.7326C209.523 76.7326 205.868 76.5459 209.083 79.6432C213.628 84.0211 213.888 90.733 209.681 95.0887C206.168 98.7269 211.126 98.4821 143.846 98.3398L83.8207 98.2128L81.5705 96.8149C80.1758 95.9483 78.7913 94.557 77.9289 93.1555L76.5379 90.8943V62.9104C76.5379 37.3111 76.6054 34.8032 77.329 33.4747C78.3408 31.6172 80.5992 29.3477 82.4476 28.331C83.7936 27.5905 89.2059 27.5203 161.35 27.305C203.952 27.178 239.066 26.9059 239.382 26.7003C240.191 26.1742 240.213 1.417 239.405 0.60491C238.602 -0.201637 50.5407 -0.201637 49.7381 0.60491ZM0.551623 1.06685C0.126412 1.49414 0 21.5118 0 88.3573C0 173.638 0.0147126 175.101 0.889037 175.572C2.13249 176.24 237.824 176.24 239.068 175.572C239.913 175.116 239.957 174.477 239.957 162.463C239.957 152.485 239.827 149.725 239.342 149.32C238.897 148.949 210.711 148.774 137.177 148.686C45.2704 148.576 35.4731 148.494 34.0168 147.826C31.6448 146.737 29.5128 144.772 28.3654 142.616L27.3514 140.711L27.1215 71.0567C26.9193 9.81368 26.8085 1.34956 26.2022 0.964764C25.1329 0.285251 1.23426 0.380869 0.551623 1.06685ZM1.02189 198.48C0.00827771 199.193 0 199.3 0 211.86C0 223.905 0.0432132 224.544 0.889037 224.999C2.13249 225.667 237.824 225.667 239.068 224.999C239.913 224.544 239.957 223.905 239.957 211.86C239.957 199.3 239.948 199.193 238.935 198.48C238.017 197.834 225.975 197.761 119.978 197.761C13.9818 197.761 1.93988 197.834 1.02189 198.48ZM1.02189 247.908L0 248.626V291.237C0 323.763 0.13055 333.979 0.551623 334.403C1.35883 335.214 25.9052 335.192 26.5428 334.379C26.7919 334.062 27.1367 332.876 27.3091 331.745C27.7343 328.948 29.1175 326.859 31.4541 325.483L33.4082 324.332H135.66C227.463 324.332 238.018 324.259 238.935 323.613C239.947 322.9 239.957 322.785 239.957 310.481C239.957 299.812 239.855 297.966 239.234 297.342C238.582 296.686 228.668 296.615 137.069 296.606C39.2936 296.596 35.5577 296.565 33.7498 295.74C29.9904 294.023 27.1215 289.694 27.1215 285.736C27.1215 281.893 29.6696 277.863 33.2253 276.082L35.5766 274.905H137.044C228.674 274.905 238.582 274.834 239.234 274.179C239.855 273.555 239.957 271.709 239.957 261.04C239.957 248.736 239.947 248.62 238.935 247.908C238.017 247.261 225.975 247.188 119.978 247.188C13.9818 247.188 1.93988 247.261 1.02189 247.908Z" fill="black"/>
</svg>
