<svg width="387" height="88" viewBox="0 0 387 88" fill="none" xmlns="http://www.w3.org/2000/svg">
<path d="M146.389 62.8645V32.6439C146.389 31.3202 147.101 30.5798 148.349 30.5798H150.598C151.867 30.5798 152.558 31.2978 152.558 32.6439V62.8645C152.558 64.1882 151.845 64.9286 150.598 64.9286H148.349C147.079 64.9286 146.389 64.2107 146.389 62.8645V62.8645Z" fill="white"/>
<path d="M185.031 41.82C185.031 47.8103 181.244 52.6788 174.652 52.6788H166.902V62.887C166.902 64.2107 166.189 64.951 164.942 64.951H162.692C161.423 64.951 160.732 64.2331 160.732 62.887V32.6439C160.732 31.3202 161.445 30.5798 162.692 30.5798H174.652C181.289 30.5798 185.031 35.7849 185.031 41.82ZM178.728 41.7303C178.728 38.3874 176.768 35.9868 173.628 35.9868H166.902V47.4513H173.628C176.812 47.4513 178.728 45.0507 178.728 41.7527V41.7303Z" fill="white"/>
<path d="M212.133 32.6439V33.9227C212.133 35.2464 211.376 36.0317 210.129 36.0317H196.677V45.4546H208.169C209.439 45.4546 210.173 46.1725 210.173 47.5186V48.5058C210.173 49.8295 209.416 50.6147 208.169 50.6147H196.677V62.887C196.677 64.2107 195.964 64.951 194.717 64.951H192.468C191.198 64.951 190.508 64.2331 190.508 62.887V32.6439C190.508 31.3202 191.221 30.5798 192.468 30.5798H210.129C211.398 30.5798 212.133 31.2978 212.133 32.6439Z" fill="white"/>
<path d="M215.164 58.2652C214.651 56.9864 215.32 56.0441 216.567 55.7748L218.215 55.3261C219.418 55.0345 220.019 55.5281 220.687 56.7171C221.778 58.669 224.072 60.1049 227.034 60.1049C230.754 60.1049 233.048 58.2876 233.048 55.6851C233.048 53.5313 231.4 52.073 228.838 51.0858L224.295 49.4256C219.262 47.6981 216.099 44.2206 216.099 40.0027C216.099 33.8553 221.132 30.0862 227.19 30.0862C232.29 30.0862 235.943 32.5765 237.569 36.4579C238.126 37.6918 237.569 38.7239 236.299 39.0604L234.807 39.5091C233.649 39.8905 232.892 39.3969 232.29 38.2751C231.355 36.3906 229.618 35.538 227.257 35.538C224.584 35.538 222.246 37.0188 222.246 39.6437C222.246 40.9674 222.758 42.5828 226.032 43.8616L230.62 45.634C236.567 47.6308 239.039 51.3775 239.083 55.3486C239.083 61.7876 234.05 65.4894 227.123 65.4894C221.132 65.4894 216.901 62.5952 215.164 58.2876V58.2652Z" fill="white"/>
<path d="M254.605 47.7429C254.605 38.1854 261.331 30.0413 272.423 30.0413C276.587 30.0413 279.639 31.2079 282.244 33.0252C283.269 33.8104 283.402 34.7976 282.734 35.9194L281.977 37.0411C281.264 38.1629 280.396 38.2751 279.238 37.5796C277.278 36.4129 274.806 35.7174 272.467 35.7174C265.207 35.7174 260.931 41.2141 260.931 47.7429C260.931 54.2716 265.229 59.7683 272.467 59.7683C274.806 59.7683 277.278 59.0952 279.238 57.9062C280.396 57.2331 281.309 57.3004 281.977 58.4446L282.734 59.5664C283.447 60.6882 283.38 61.5632 282.512 62.2811C279.839 64.2105 276.766 65.4669 272.467 65.4669C261.376 65.4669 254.65 57.3228 254.65 47.7653H254.628L254.605 47.7429Z" fill="white"/>
<path d="M286.053 52.4543C286.053 45.1852 290.774 39.4641 297.634 39.4641C300.752 39.4641 303.647 40.6981 305.674 43.7269V42.1115C305.674 40.7878 306.387 40.0026 307.634 40.0026H309.705C310.974 40.0026 311.709 40.7878 311.709 42.1115V62.8644C311.709 64.188 310.952 64.9284 309.705 64.9284H307.634C306.364 64.9284 305.674 64.2105 305.674 62.8644V61.2041C303.647 64.2554 300.752 65.4669 297.634 65.4669C290.752 65.4669 286.053 59.7458 286.053 52.4767V52.4543ZM305.785 52.4318C305.741 47.9896 302.979 44.6691 298.837 44.6691C294.694 44.6691 292.111 48.214 292.111 52.4318C292.111 56.6497 294.583 60.1945 298.837 60.1945C303.09 60.1945 305.763 56.9189 305.785 52.4318Z" fill="white"/>
<path d="M318.123 62.8644V42.1115C318.123 40.7878 318.836 40.0026 320.083 40.0026H322.154C323.424 40.0026 324.181 40.7878 324.181 42.1115V44.4224C325.116 41.2365 327.9 39.4866 331.107 39.4866C333.624 39.4866 336.631 40.5186 338.256 44.2429C340.394 40.2045 343.357 39.4866 346.118 39.4866C352.02 39.4866 355.005 43.9288 355.005 50.7492V62.8868C355.005 64.2105 354.292 64.9509 353.045 64.9509H350.973C349.704 64.9509 348.969 64.2329 348.969 62.8868V50.9062C348.969 46.6884 347.276 44.7589 344.938 44.7589C342.844 44.7589 339.749 46.3743 339.593 52.2524V62.8419C339.593 64.1656 338.835 64.906 337.588 64.906H335.517C334.248 64.906 333.557 64.1881 333.557 62.8419V50.8614C333.557 46.6435 331.82 44.714 329.504 44.714C327.188 44.714 324.159 46.5313 324.159 52.6113V62.8195C324.159 64.1432 323.401 64.8836 322.154 64.8836H320.083C318.813 64.8836 318.123 64.1656 318.123 62.8195H318.145L318.123 62.8644Z" fill="white"/>
<path d="M361.062 73.8578V42.134C361.062 40.8103 361.775 40.025 363.022 40.025H365.094C366.363 40.025 367.12 40.8103 367.12 42.134V43.7493C369.08 40.6981 371.976 39.4866 375.16 39.4866C382.042 39.4866 386.697 45.2301 386.697 52.4767C386.697 59.7234 382.02 65.4669 375.16 65.4669C371.976 65.4669 369.08 64.2329 367.12 61.2041V73.8578C367.12 75.1815 366.363 75.9218 365.094 75.9218H363.022C361.753 75.9218 361.062 75.2039 361.062 73.8578ZM380.639 52.4767C380.639 48.2589 378.212 44.714 373.958 44.714C369.704 44.714 367.009 47.9896 366.964 52.4767C367.009 56.919 369.815 60.2394 373.958 60.2394C378.1 60.2394 380.639 56.7619 380.639 52.4767Z" fill="white"/>
<path d="M110.889 44.198L103.518 24.3201C103.451 24.1406 103.362 23.9836 103.228 23.849L100.177 20.7753L90.9788 11.5767L88.9521 9.57996C88.9521 9.57996 88.7071 9.37804 88.5735 9.33317L72.9612 2.46791C72.9612 2.46791 72.8499 2.42304 72.783 2.4006L66.0125 0.516017C65.9234 0.493581 65.8344 0.471146 65.723 0.471146L48.5295 0C48.4181 0 48.3067 0 48.1954 0.044871L41.4026 1.66023C41.4026 1.66023 41.269 1.7051 41.2022 1.72753C41.2022 1.72753 41.1799 1.72753 41.1576 1.72753L29.9773 5.24991C29.9773 5.24991 29.7546 5.33965 29.6655 5.40696L18.708 12.5415C18.708 12.5415 18.5521 12.6536 18.5076 12.7209L10.2449 21.224C10.2449 21.224 10.1335 21.3586 10.089 21.4259L3.94204 31.0507C3.83069 31.2302 3.76387 31.4322 3.7416 31.6116L1.06903 42.2909C1.06903 42.2909 1.04676 42.4256 1.04676 42.4929L0 52.9702C0 52.9702 0 53.06 0 53.1049C0 53.1049 0 53.1273 0 53.1497L1.7149 67.4411C1.7149 67.4411 1.7149 67.5982 1.75944 67.6879L5.34514 77.8512C5.43423 78.1878 5.65694 78.4794 5.94647 78.6589C6.34736 78.8833 13.2292 82.7422 30.69 85.9056C36.4361 86.9376 43.4961 87.5658 51.7143 87.5658C62.605 87.5658 75.5447 86.3094 90.1993 82.7197C90.3775 82.7197 90.5556 82.6749 90.7115 82.5851C95.1436 81.4858 99.7092 80.1621 104.431 78.5916C104.832 78.457 105.166 78.1205 105.255 77.6942L108.484 65.4668L110.667 57.1208C110.667 57.1208 110.711 56.9189 110.711 56.8292L110.934 44.9159C110.979 44.6915 110.979 44.4448 110.889 44.198V44.198ZM102.56 64.2553L101.87 56.6497C103.094 55.8869 103.941 54.5183 103.941 52.9702C103.941 51.8485 103.518 50.8389 102.827 50.0761L105.277 43.9063L108.395 45.4095L108.172 56.6272L106.257 63.9636L102.582 64.2777L102.56 64.2553ZM91.7806 74.441L83.8742 73.409L82.6493 62.7746L90.0879 52.9254L95.3886 53.6657C95.7004 55.6176 97.3262 57.1433 99.3306 57.2779L100.043 65.22L91.7583 74.4635L91.7806 74.441ZM69.8432 79.7358L61.3801 73.8577L67.3488 63.2233L80.1994 63.6496L81.3798 73.8353L69.8655 79.7358H69.8432ZM58.9302 72.9827L44.9883 74.0372L38.0173 65.8482C38.485 65.1527 38.7523 64.3226 38.7523 63.4252C38.7523 62.2137 38.2623 61.1143 37.4605 60.3291L42.3825 51.153L55.3668 51.2876C55.9681 52.9254 57.5494 54.092 59.3756 54.092C59.5761 54.092 59.7988 54.092 59.9992 54.0472L65.0994 61.9445L58.9079 72.9603L58.9302 72.9827ZM30.445 61.9669L21.0465 61.406L16.1913 50.5472L21.5142 39.9128L32.984 38.5891L40.1331 49.9415L35.1666 59.1849C34.9439 59.14 34.6989 59.1176 34.4539 59.1176C32.6054 59.1176 31.0241 60.3067 30.4228 61.9893L30.445 61.9669ZM13.296 78.8833L10.7571 71.1879L15.9686 73.7455L21.7815 81.4409C18.4853 80.6108 15.6345 79.7134 13.296 78.8833V78.8833ZM16.0577 70.9411L9.59899 67.7552L5.34514 56.358L7.52774 49.6274L13.8306 51.5568L18.8416 62.7746L16.0577 70.9411V70.9411ZM13.2738 33.1148C14.0533 33.8552 15.0778 34.3039 16.2136 34.3039C16.3472 34.3039 16.4809 34.3039 16.6368 34.3039L19.2425 38.791L14.1424 48.9767L8.06226 47.1146L8.77494 36.5923L13.2515 33.1148H13.2738ZM23.3405 19.9452L35.2557 16.7818L40.6231 24.881L32.9394 36.009L21.3806 37.3327L18.9975 33.2494C19.9107 32.4642 20.512 31.2751 20.512 29.9738C20.512 28.6726 19.9329 27.4835 18.9975 26.6758L23.3405 19.9227V19.9452ZM46.191 8.72741L58.7298 8.95177L64.5426 15.5029L60.8233 20.1695C60.4001 20.0349 59.9547 19.9452 59.487 19.9452C57.4158 19.9452 55.7009 21.4259 55.3 23.3778L42.8502 23.6022L37.5496 15.5927L46.191 8.72741V8.72741ZM68.3733 7.35885L79.2195 12.5863L78.9745 15.4356L66.8588 14.2017L61.8255 8.54793L68.3956 7.35885H68.3733ZM98.0388 31.0507L103.206 42.2012L100.6 48.7748C100.288 48.7075 99.9765 48.6626 99.6647 48.6626C97.9498 48.6626 96.4798 49.6722 95.7894 51.1305L90.3552 50.3677L84.7205 38.1179L89.108 28.7175L98.0388 31.0507V31.0507ZM101.402 52.9702C101.402 53.935 100.622 54.7202 99.6647 54.7202C98.707 54.7202 97.9275 53.935 97.9275 52.9702C97.9275 52.0055 98.707 51.2203 99.6647 51.2203C100.622 51.2203 101.402 52.0055 101.402 52.9702ZM80.7339 61.1143L67.3488 60.6656L62.36 52.9478C63.1841 52.1626 63.7186 51.0408 63.7186 49.8068C63.7186 48.6402 63.2731 47.6082 62.5159 46.8229L67.9056 38.1404L82.4711 39.3295L88.039 51.4446L80.7339 61.1143ZM55.2554 48.7524L42.3603 48.6178L35.2111 37.2654L42.8725 26.1822L55.5672 25.9579C56.2131 27.5059 57.7498 28.6053 59.5093 28.6053C59.7097 28.6053 59.8879 28.6053 60.0661 28.5604L65.6785 36.884L60.2665 45.589C59.9992 45.5217 59.7097 45.4992 59.4202 45.4992C57.4158 45.4992 55.7454 46.8902 55.2777 48.7524H55.2554ZM61.2464 24.2752C61.2464 25.24 60.4669 26.0252 59.5093 26.0252C58.5516 26.0252 57.7721 25.24 57.7721 24.2752C57.7721 23.3105 58.5516 22.5253 59.5093 22.5253C60.4669 22.5253 61.2464 23.3105 61.2464 24.2752ZM59.4202 48.0569C60.3779 48.0569 61.1574 48.8421 61.1574 49.8068C61.1574 50.7716 60.3779 51.5568 59.4202 51.5568C58.4625 51.5568 57.683 50.7716 57.683 49.8068C57.683 48.8421 58.4625 48.0569 59.4202 48.0569ZM82.5379 36.7494L67.8833 35.5603L62.4046 27.4386C63.2509 26.6534 63.7854 25.5316 63.7854 24.2752C63.7854 23.2881 63.4513 22.3906 62.9168 21.6727L66.792 16.8042L79.4645 18.083L86.8809 27.4162L82.5379 36.7494V36.7494ZM16.2136 28.2239C17.1713 28.2239 17.9508 29.0091 17.9508 29.9738C17.9508 30.9386 17.1713 31.7238 16.2136 31.7238C15.2559 31.7238 14.4764 30.9386 14.4764 29.9738C14.4764 29.0091 15.2559 28.2239 16.2136 28.2239ZM34.4762 61.6977C35.4338 61.6977 36.2134 62.4829 36.2134 63.4476C36.2134 64.4124 35.4338 65.1976 34.4762 65.1976C33.5185 65.1976 32.739 64.4124 32.739 63.4476C32.739 62.4829 33.5185 61.6977 34.4762 61.6977V61.6977ZM107.371 42.0666L105.544 41.1916L100.266 29.7944L100.444 24.7239L101.224 25.5092L107.371 42.0666ZM89.5089 13.7754L97.972 22.2336L97.7716 28.3136L89.0635 26.0252L81.4466 16.4452L81.7362 13.1921L89.5089 13.7754V13.7754ZM72.0035 4.86851L85.7005 10.9037L80.9121 10.5447L69.4201 5.00312L68.7074 3.94865L72.0035 4.86851V4.86851ZM48.6631 2.58008L64.988 3.05123L66.3911 5.1153L59.3088 6.39412L46.3246 6.16977L44.0084 3.70186L48.6408 2.60252L48.6631 2.58008ZM30.9573 7.65051L41.2022 4.4198L43.897 7.29154L35.278 14.1344L23.1846 17.3427L21.2024 14.0446L30.9796 7.67295L30.9573 7.65051ZM12.1379 22.9291L19.1534 15.7049L21.0242 18.801L16.5922 25.6662C16.4586 25.6662 16.3472 25.6662 16.2136 25.6662C13.8528 25.6662 11.9152 27.5957 11.9152 29.9963C11.9152 30.2879 11.9375 30.5796 12.0043 30.8488L7.88409 34.0347L6.50326 31.7911L12.1157 22.9515L12.1379 22.9291ZM5.52332 35.0443L6.236 36.2334L5.4565 47.7876L3.49662 53.7779L2.58349 52.6786L3.54116 42.8294L5.50104 35.0667L5.52332 35.0443ZM4.25384 67.1944L2.71711 56.8516L2.87301 57.0311L7.37184 69.1462L10.2003 77.7166C7.81727 76.7519 8.39633 77.066 7.66137 76.6846L4.23157 67.1944H4.25384ZM25.6567 82.3383C25.6567 82.3383 25.6121 82.2262 25.5676 82.1813L18.218 72.4667L21.1133 63.9861L30.3114 64.5245C30.8014 66.3642 32.4717 67.7328 34.4539 67.7328C34.9884 67.7328 35.5229 67.6206 35.9906 67.4411L42.8948 75.5628L38.7746 84.2005C38.7746 84.2005 38.73 84.3127 38.7077 84.3575C35.9906 84.0883 33.474 83.7518 31.18 83.3928C29.2201 83.0787 27.3716 82.7197 25.6121 82.3383H25.6567ZM41.4471 84.6043L45.2556 76.5948L59.2643 75.5179L68.3733 81.8447L68.0615 84.0434C57.9057 85.1652 48.9749 85.1652 41.4471 84.5819V84.6043ZM89.1748 80.2967C82.6493 81.8896 76.4801 83.0114 70.6895 83.7518L70.9345 82.0467L82.9611 75.8993L90.4666 76.8865L89.1525 80.3191L89.1748 80.2967ZM102.939 76.348C99.2638 77.5596 95.7004 78.5916 92.2037 79.5115L93.3618 76.4602L101.981 66.8578L105.522 66.5662L102.939 76.348V76.348Z" fill="white"/>
</svg>
