<svg width="607" height="140" viewBox="0 0 607 140" fill="none" xmlns="http://www.w3.org/2000/svg">
<path fill-rule="evenodd" clip-rule="evenodd" d="M0 70V140H13.994H27.9867L27.5195 83.2076C27.2622 51.9717 27.1395 26.4151 27.249 26.4151C27.3572 26.4151 28.4234 30.7247 29.6176 35.9906C30.8118 41.2577 39.3428 66.6651 48.5745 92.4528L65.3594 139.34H78.4138H91.4683L107.76 92.4528C116.721 66.6651 125.122 41.1085 126.432 35.6604L128.811 25.7547L128.229 82.8774L127.647 140H143.657H159.667V70V0L136.905 0.0171698L114.142 0.0343396L99.3804 43.2719C91.2611 67.0521 83.4915 90.3726 82.1126 95.0943L79.6067 103.679L78.6804 99.0566C78.171 96.5142 70.5044 73.187 61.6422 47.217L45.5303 0H22.7651H0V70ZM191.836 1.89792C186.024 4.42981 183.42 8.7817 183.42 15.9653C183.42 30.3575 199.686 36.7526 210.009 26.4191C215.147 21.2774 215.397 11.3875 210.521 6.12302C204.947 0.101698 199.03 -1.23623 191.836 1.89792ZM467.126 69.3396V138.679H481.641H496.157V107.642V76.6038H514.63H533.104V66.6981V56.7925H514.63H496.157V40.9434V25.0943L505.723 25.1234C515.458 25.1525 537.645 27.8877 546.648 30.17L551.615 31.4287L547.445 26.6753C537.93 15.8279 526.359 8.09094 514.63 4.73491C508.116 2.87 482.491 0.075283 471.415 0.0211321L467.126 0V69.3396ZM584.983 1.93358C577.004 5.40585 573.871 18.5606 579.36 25.5447C583.136 30.3496 590.755 32.4747 596.913 30.4394C603.561 28.2443 607 23.4183 607 16.2849C607 9.20962 603.962 4.21189 598.196 1.80151C592.867 -0.427925 590.347 -0.401509 584.983 1.93358ZM182.98 43.1451C182.496 43.6285 182.1 65.6191 182.1 92.013V140H197.935H213.77V91.1321V42.2642H198.815C190.589 42.2642 183.463 42.6604 182.98 43.1451ZM285.842 44.4275C281.333 45.8143 277.473 48.3885 272.976 53.0085L266.552 59.6096V52.2583V44.9057H252.037H237.522V92.4528V140H252.037H266.552L266.581 110.613C266.606 84.494 266.891 80.6057 269.144 75.6409C276.027 60.4642 295.952 61.5274 299.58 77.2642C300.25 80.1698 300.812 95.4734 300.829 111.274L300.861 140H315.468H330.075L329.645 102.689C329.271 70.2509 328.906 64.6879 326.847 60.0943C320.112 45.0668 303.908 38.8764 285.842 44.4275ZM387.952 43.5043C376.736 45.78 364.005 56.0145 358.25 67.3809C351.696 80.3283 350.982 98.4398 356.449 113.066C359.863 122.198 368.734 131.302 378.422 135.616C391.515 141.446 413.872 141.226 429.133 135.113L434.137 133.11V123.347C434.137 117.978 433.968 113.585 433.761 113.585C433.555 113.585 430.007 114.774 425.876 116.226C415.399 119.913 399.056 119.876 391.759 116.148C386.753 113.593 381.472 105.733 381.383 100.708C381.361 99.433 388.318 99.0566 411.851 99.0566H442.346L441.835 84.8585C441.379 72.1568 440.916 69.9155 437.445 63.5877C427.996 46.3572 409.961 39.0402 387.952 43.5043ZM576.65 91.1321V140H591.825H607V91.1321V42.2642H591.825H576.65V91.1321ZM393.89 62.6091C391.713 63.5706 388.915 65.4989 387.672 66.8962C385.341 69.5179 381.354 78.116 381.354 80.5238C381.354 81.3915 387.65 81.8868 398.68 81.8868H416.006L415.319 75.7823C414.106 65.0115 403.383 58.4196 393.89 62.6091Z" fill="black"/>
</svg>
