<svg width="773" height="229" viewBox="0 0 773 229" fill="none" xmlns="http://www.w3.org/2000/svg">
<path fill-rule="evenodd" clip-rule="evenodd" d="M324.498 47.4345C316.76 48.5988 307.158 52.0231 302.293 55.3541C295.531 59.9836 290.06 67.6693 288.344 74.9493C287.338 79.2192 287.331 87.306 288.33 91.5439C289.833 97.9196 293.839 104.111 298.978 108.004C305.519 112.958 312.886 115.93 333.785 122.046C343.175 124.795 348.163 127.245 351.455 130.727C358.058 137.708 355.458 147.361 346.034 150.853C332.313 155.938 311.714 150.758 294.613 137.924C292.131 136.061 290.023 134.622 289.927 134.725C289.832 134.829 287.492 139.441 284.728 144.975L279.701 155.036L282.579 157.6C285.813 160.482 294.369 165.741 299.762 168.16C312.415 173.835 327.343 176.374 340.34 175.062C367.962 172.272 383.7 156.328 381.341 133.524C380.561 125.986 377.825 120.153 372.683 115.066C366.536 108.986 359.473 105.545 342.511 100.367C325.524 95.181 320.719 93.0002 317.018 88.7953C311.197 82.1816 313.448 74.2584 322.183 70.6124C324.689 69.5665 325.914 69.4276 332.623 69.4297C338.889 69.4318 341.008 69.6425 344.681 70.6307C351.347 72.4241 358.448 75.1811 364.56 78.349C367.564 79.9065 370.202 81.1804 370.422 81.1804C370.642 81.1804 370.972 80.7049 371.157 80.1235C371.342 79.5421 373.488 74.9158 375.926 69.8428C379.379 62.6608 380.228 60.4601 379.764 59.9008C378.767 58.6987 366.736 52.993 361.718 51.3427C352.698 48.375 347.459 47.5562 336.293 47.3695C330.671 47.2752 325.363 47.3045 324.498 47.4345ZM429.082 49.4271C421.623 50.3765 415.543 51.6562 410.21 53.3998C405.062 55.0831 395.06 59.4237 394.072 60.403C393.525 60.9456 394.097 62.9261 397.131 70.994C399.183 76.4523 400.957 81.0131 401.072 81.129C401.188 81.2448 403.35 80.3861 405.877 79.2202C413.692 75.6156 423.726 72.4896 430.655 71.5004C431.952 71.3154 433.663 71.0396 434.455 70.8881L435.897 70.6124V122.553V174.494H447.954H460.012V122.595V70.6957L461.453 70.7062C464.339 70.7267 474.03 72.2118 478.109 73.2582C484.03 74.7779 490.49 77.0368 495.571 79.3644C500.354 81.5557 500.256 81.5782 501.436 78.0056C502.068 76.0901 502.026 75.9071 500.583 74.261C490.91 63.2233 473.88 53.4564 458.177 49.9414C453.102 48.8049 436.302 48.5082 429.082 49.4271ZM553.849 52.1495C536.87 54.2878 524.96 62.5644 519.302 76.1572C516.174 83.6694 516.104 84.8788 516.104 131.575V173.969H528.424H540.743V152.738V131.507H564.858H588.972V120.76V110.013H564.858H540.743L540.749 100.708C540.758 88.2113 541.837 84.2597 546.526 79.5516C549.923 76.1404 553.684 74.7847 560.596 74.4807C568.638 74.1273 578.401 75.958 589.361 79.8755C592.154 80.8737 594.589 81.5164 594.771 81.3041C594.954 81.0918 595.99 77.4976 597.073 73.3169C598.156 69.1361 599.373 64.5486 599.776 63.1227C600.18 61.6968 600.332 60.36 600.114 60.1519C599.438 59.5055 588.924 55.9989 584.517 54.9499C575.676 52.8467 559.814 51.3977 553.849 52.1495ZM613.845 53.5434C613.703 53.9125 613.652 58.6898 613.73 64.1591L613.873 74.1032L622.91 74.2469L631.946 74.39L632.084 112.817C632.16 133.951 632.146 151.639 632.052 152.121C631.901 152.903 630.876 153 622.747 153H613.611V163.485V173.969H644.017H674.422V163.497V153.025L665.641 152.882L656.86 152.738L656.726 113.552L656.592 74.3653H665.507H674.422V63.6186V52.8719H644.263C620.231 52.8719 614.05 53.0082 613.845 53.5434ZM694.343 113.686V174.5L733.529 174.366L772.716 174.231L772.857 163.354L772.999 152.476H745.728H718.458V102.674V52.8719H706.4H694.343V113.686Z" fill="black"/>
<path fill-rule="evenodd" clip-rule="evenodd" d="M92.7889 3.69791C89.9057 5.43574 82.3567 9.86236 76.0135 13.5351C69.6703 17.2084 59.2906 23.2187 52.9474 26.8915C46.6042 30.5648 38.8193 35.0978 35.6477 36.9651C32.4761 38.8324 29.4162 40.6148 28.848 40.9262C28.2792 41.2376 21.84 44.9806 14.5385 49.2436C7.23703 53.5062 1.0726 57.0694 0.839845 57.1611C0.607086 57.2529 0.322912 83.0293 0.208106 114.442L0 171.556L6.55289 175.366C10.157 177.461 15.7007 180.634 18.8723 182.417C22.0439 184.2 28.7672 188.061 33.8129 190.998C38.8586 193.935 44.2844 197.055 45.8702 197.934C52.4824 201.594 57.45 204.429 62.5571 207.456C65.5363 209.221 68.0421 210.665 68.1254 210.665C68.3498 210.665 77.0636 215.649 85.3957 220.541C89.4024 222.895 92.7921 224.82 92.9284 224.82C93.0647 224.82 94.5624 225.662 96.2572 226.691L99.3382 228.563L100.782 227.563C101.576 227.013 104.112 225.537 106.419 224.283C108.726 223.029 112.146 221.068 114.02 219.927C115.894 218.784 122.972 214.658 129.747 210.755C155.005 196.21 157.924 194.52 163.56 191.184C166.732 189.307 171.568 186.51 174.307 184.97C177.046 183.43 181.764 180.72 184.792 178.947C187.819 177.175 192.007 174.73 194.097 173.513L197.897 171.301V114.28V57.2586L195.669 56.0346C192.942 54.5363 169.128 40.8187 158.17 34.4336C153.763 31.8659 149.163 29.2086 147.947 28.5281C143.509 26.0438 135.639 21.5087 130.009 18.1929C126.838 16.3251 122.945 14.0766 121.36 13.1959C116.288 10.3803 104.658 3.61772 102.118 2.00728C100.767 1.15016 99.2941 0.469173 98.8459 0.493812C98.3977 0.518451 95.6722 1.96061 92.7889 3.69791ZM95.1322 30.1792C92.1703 31.9695 66.7163 46.8346 48.7378 57.2736C44.2687 59.8686 38.607 63.1723 36.1562 64.6155C33.7054 66.0582 29.931 68.2274 27.7685 69.4358L23.8368 71.6328L23.7136 115.09L23.5904 158.547L30.7907 162.709C46.557 171.82 51.3364 174.536 51.6038 174.536C51.7574 174.536 51.8832 155.324 51.8832 131.842C51.8832 108.36 52.0756 89.0294 52.3115 88.8837C52.6648 88.6651 68.6826 97.6473 94.5162 112.55L99.1431 115.218L105.787 111.331C109.442 109.193 115.671 105.614 119.629 103.377C123.587 101.14 126.83 99.1665 126.837 98.9925C126.846 98.7324 113.615 91.0173 101.454 84.1902C93.3137 79.621 82.4186 73.3214 81.562 72.6892C80.6535 72.0181 81.2805 71.5275 89.3018 66.6306C94.1021 63.7002 98.2069 61.3023 98.4239 61.3023C98.6409 61.3023 101.292 62.7392 104.315 64.4959C107.337 66.2521 114.411 70.2913 120.033 73.4713C125.656 76.6513 132.755 80.7345 135.81 82.5452C138.865 84.3554 142.311 86.3202 143.469 86.911L145.574 87.9847L153.672 83.1622C158.126 80.5101 164.29 76.9244 167.371 75.1945C170.451 73.4645 172.973 71.897 172.976 71.7109C172.978 71.5253 170.563 70.0171 167.607 68.3595C164.652 66.7019 159.757 63.88 156.729 62.0887C150.898 58.6382 125.077 43.7007 121.258 41.5687C120.016 40.8751 114.367 37.6002 108.706 34.2913C103.045 30.9829 98.383 28.2763 98.3458 28.2773C98.308 28.2778 96.8622 29.1339 95.1322 30.1792ZM162.758 92.7803C157.28 95.9173 151.264 99.3909 149.39 100.499L145.983 102.515L145.663 115.852C145.488 123.188 145.311 139.374 145.27 151.82L145.196 174.451L150.045 171.821C152.713 170.374 159.2 166.715 164.462 163.688L174.029 158.185V122.587C174.029 94.4353 173.892 86.9986 173.374 87.0332C173.014 87.0573 168.236 89.6433 162.758 92.7803ZM103.363 126.969C105.727 125.596 111.92 121.962 117.124 118.894C122.328 115.826 126.645 113.29 126.717 113.258C126.79 113.227 126.848 116.369 126.848 120.24V127.278L123.834 128.981C122.176 129.917 116.039 133.473 110.196 136.883C104.353 140.292 99.4577 143.082 99.3182 143.082C99.1783 143.082 99.064 140.019 99.064 136.274V129.467L103.363 126.969ZM121.606 142.07C119.155 143.532 113.175 146.994 108.317 149.764C103.459 152.535 99.3869 155.054 99.2684 155.364C99.1494 155.673 99.1143 166.128 99.1893 178.596L99.3261 201.265L110.597 194.68C116.796 191.058 122.989 187.483 124.358 186.737L126.848 185.378V162.396C126.848 149.755 126.671 139.413 126.455 139.413C126.239 139.413 124.057 140.609 121.606 142.07Z" fill="black"/>
</svg>
